<svg xmlns="http://www.w3.org/2000/svg" viewBox="0 0 32 32">
<path d="M26.881 28.159c0 1.415-1.147 2.562-2.562 2.562s-2.562-1.147-2.562-2.562c0-1.415 1.147-2.562 2.562-2.562v0c1.415 0 2.562 1.147 2.562 2.562v0zM14.081 25.596c-1.415 0-2.562 1.147-2.562 2.562s1.147 2.562 2.562 2.562c1.415 0 2.562-1.147 2.562-2.562v0c-0.001-1.414-1.148-2.56-2.562-2.56v0zM8.986 22.007c0.016 0.083 0.038 0.156 0.066 0.226l-0.003-0.009c0.012 0.032 0.031 0.063 0.046 0.093s0.032 0.072 0.053 0.105 0.045 0.063 0.068 0.093 0.039 0.058 0.063 0.083 0.047 0.046 0.071 0.069 0.054 0.057 0.085 0.082c0.021 0.017 0.044 0.030 0.066 0.046 0.032 0.025 0.069 0.050 0.107 0.073l0.006 0.003c0.021 0.012 0.044 0.020 0.066 0.031 0.035 0.020 0.078 0.041 0.122 0.059l0.008 0.003c0.036 0.012 0.073 0.020 0.11 0.029s0.066 0.021 0.101 0.027c0.066 0.012 0.143 0.019 0.221 0.019 0 0 0.001 0 0.001 0h17.921c0.618-0 1.134-0.438 1.254-1.020l0.001-0.008 1.074-5.371h-22.578zM31.711 8.145c-0.236-0.287-0.592-0.469-0.99-0.469-0 0-0 0-0 0h-21.99l-1.074-5.369c-0.121-0.591-0.637-1.029-1.255-1.029h-5.12c-0.708 0-1.281 0.574-1.281 1.281s0.574 1.281 1.281 1.281v0h4.071l2.048 10.24h23.601l0.974-4.869c0.016-0.077 0.026-0.165 0.026-0.255 0-0.309-0.109-0.591-0.291-0.812l0.002 0.002z"></path>
</svg>