<svg xmlns="http://www.w3.org/2000/svg" viewBox="0 0 32 32">
<path d="M14.846 20.151c0.056 0.525 0.496 0.93 1.031 0.93 0.037 0 0.074-0.002 0.111-0.006l-0.005 0c0.525-0.056 0.93-0.496 0.93-1.031 0-0.038-0.002-0.075-0.006-0.111l0 0.005-0.478-4.626c-0.060-0.521-0.498-0.921-1.030-0.921-0.572 0-1.037 0.464-1.037 1.037 0 0.034 0.002 0.069 0.005 0.102l-0-0.004 0.478 4.626zM21.334 21.076c0.032 0.003 0.069 0.005 0.106 0.005 0.535 0 0.975-0.405 1.031-0.926l0-0.005 0.478-4.626c0.003-0.032 0.006-0.069 0.006-0.107 0-0.535-0.405-0.975-0.925-1.031l-0.005-0c-0.57-0.058-1.079 0.355-1.138 0.925l-0.478 4.626c-0.003 0.032-0.006 0.069-0.006 0.107 0 0.535 0.405 0.975 0.926 1.031l0.005 0zM13.307 25.582c-1.769 0-3.209 1.439-3.209 3.209s1.439 3.209 3.209 3.209 3.209-1.44 3.209-3.209c0-1.769-1.44-3.209-3.209-3.209zM13.307 29.927c-0.626 0-1.135-0.51-1.135-1.136s0.509-1.135 1.135-1.135 1.136 0.509 1.136 1.135c0 0.627-0.509 1.136-1.136 1.136zM24.011 25.582c-1.769 0-3.209 1.439-3.209 3.209s1.439 3.209 3.209 3.209 3.209-1.44 3.209-3.209c0-1.769-1.44-3.209-3.209-3.209zM24.011 29.927c-0.626 0-1.136-0.51-1.136-1.136s0.509-1.135 1.136-1.135c0.626 0 1.136 0.509 1.136 1.135s-0.509 1.136-1.136 1.136z"></path>
<path d="M30.211 10.93c-0.191-0.246-0.487-0.403-0.82-0.403h-20.662l-0.868-3.337c-0.12-0.45-0.523-0.776-1.003-0.776-0 0-0 0-0 0h-4.249c-0.572 0-1.037 0.464-1.037 1.037s0.464 1.037 1.037 1.037v0h3.447l0.861 3.31c0.004 0.019 0.009 0.037 0.014 0.055l3.201 12.307c0.12 0.45 0.523 0.776 1.003 0.776 0 0 0 0 0 0h15.048c0 0 0 0 0 0 0.48 0 0.883-0.326 1.002-0.768l0.002-0.007 3.208-12.336c0.021-0.078 0.033-0.168 0.033-0.261 0-0.24-0.081-0.461-0.218-0.636l0.002 0.002zM25.382 22.863h-13.445l-2.669-10.262h18.783l-2.669 10.262zM14.589 7.305c0.187 0.187 0.446 0.303 0.732 0.303 0 0 0.001 0 0.001 0h-0c0 0 0 0 0 0 0.572 0 1.037-0.464 1.037-1.037 0-0.286-0.116-0.546-0.304-0.733l-3.26-3.259c-0.187-0.181-0.442-0.293-0.723-0.293-0.573 0-1.037 0.464-1.037 1.037 0 0.281 0.112 0.536 0.294 0.723l3.26 3.258zM22 7.608c0.265 0 0.531-0.101 0.733-0.304l3.255-3.258c0.187-0.188 0.303-0.447 0.303-0.733s-0.116-0.546-0.304-0.733v0c-0.188-0.187-0.447-0.303-0.733-0.303s-0.546 0.116-0.733 0.304l-3.255 3.258c-0.187 0.188-0.303 0.447-0.303 0.733 0 0.572 0.464 1.037 1.036 1.037v0zM18.66 6.677h0c0.572 0 1.036-0.464 1.037-1.036v0l0.001-4.604c0-0 0-0 0-0 0-0.572-0.464-1.036-1.036-1.037h-0c-0 0-0 0-0 0-0.572 0-1.036 0.464-1.037 1.036v0l-0.001 4.604c0 0 0 0 0 0 0 0.572 0.464 1.036 1.036 1.037v0z"></path>
</svg>