<svg xmlns="http://www.w3.org/2000/svg" viewBox="0 0 32 32">
  <path fill="#d3d2d2" style="fill: var(--color3, #d3d2d2)" d="M11.228 6.175c0 2.945-2.513 5.333-5.614 5.333s-5.614-2.388-5.614-5.333c0-2.946 2.513-5.333 5.614-5.333s5.614 2.388 5.614 5.333z"></path>
  <path fill="#231f20" style="fill: var(--color4, #231f20)" d="M11.228 25.825c0 2.945-2.513 5.333-5.614 5.333s-5.614-2.388-5.614-5.333c0-2.945 2.513-5.333 5.614-5.333s5.614 2.388 5.614 5.333z"></path>
  <path fill="#b7ff88" style="fill: var(--color1, #b7ff88)" d="M32 25.825c0 2.945-2.513 5.333-5.614 5.333s-5.614-2.388-5.614-5.333c0-2.945 2.513-5.333 5.614-5.333s5.614 2.388 5.614 5.333z"></path>
  <path fill="#a7a5a6" style="fill: var(--color2, #a7a5a6)" d="M32 6.175c0 2.945-2.513 5.333-5.614 5.333s-5.614-2.388-5.614-5.333c0-2.946 2.513-5.333 5.614-5.333s5.614 2.388 5.614 5.333z"></path>
</svg>