<svg xmlns="http://www.w3.org/2000/svg" viewBox="0 0 99 32">
<path fill="none" stroke="#fff" style="stroke: var(--color1, #fff)" stroke-linejoin="miter" stroke-linecap="butt" stroke-miterlimit="10" stroke-width="1.347" d="M26.193 25.453h-17.154c-1.090 0-1.981-0.642-1.981-1.426l2.248-14.092c0-0.784 1.044-1.193 2.134-1.193h12.315c1.090 0 2.134 0.409 2.134 1.193l2.286 14.092c-0.001 0.785-0.892 1.426-1.982 1.426z"></path>
<path fill="#fff" style="fill: var(--color1, #fff)" d="M33.018 14.19c-0.259-0.153-0.388-0.371-0.388-0.654 0-0.162 0.044-0.293 0.133-0.394s0.198-0.151 0.327-0.151c0.137 0 0.327 0.065 0.57 0.194 0.259 0.121 0.495 0.214 0.709 0.279s0.487 0.097 0.819 0.097c0.339 0 0.604-0.056 0.794-0.17s0.285-0.271 0.285-0.473c0-0.137-0.038-0.246-0.115-0.327s-0.214-0.155-0.413-0.225c-0.198-0.069-0.499-0.148-0.903-0.236-0.719-0.146-1.235-0.352-1.546-0.619s-0.467-0.635-0.467-1.104c0-0.355 0.105-0.677 0.315-0.964s0.499-0.509 0.867-0.667c0.368-0.158 0.786-0.237 1.255-0.237 0.339 0 0.667 0.042 0.982 0.127s0.598 0.209 0.849 0.37c0.259 0.162 0.388 0.376 0.388 0.643 0 0.162-0.044 0.297-0.133 0.406s-0.198 0.164-0.327 0.164c-0.089 0-0.176-0.018-0.261-0.055s-0.192-0.091-0.321-0.164c-0.235-0.121-0.436-0.212-0.606-0.273s-0.38-0.091-0.631-0.091c-0.299 0-0.536 0.060-0.71 0.182s-0.261 0.287-0.261 0.497c0 0.202 0.089 0.355 0.267 0.461s0.522 0.21 1.030 0.315c0.541 0.114 0.966 0.243 1.273 0.388s0.527 0.327 0.661 0.545c0.133 0.218 0.2 0.497 0.2 0.837 0 0.55-0.228 0.99-0.685 1.322s-1.065 0.497-1.825 0.497c-0.881 0.001-1.592-0.173-2.133-0.521z"></path>
<path fill="#fff" style="fill: var(--color1, #fff)" d="M43.293 9.152c0.4 0.408 0.6 1.028 0.6 1.861v2.958c0 0.218-0.065 0.39-0.194 0.515s-0.307 0.188-0.533 0.188c-0.21 0-0.382-0.065-0.515-0.194s-0.2-0.299-0.2-0.509v-0.267c-0.137 0.315-0.354 0.562-0.649 0.74s-0.636 0.267-1.025 0.267c-0.396 0-0.756-0.081-1.079-0.243s-0.578-0.384-0.764-0.667c-0.186-0.283-0.279-0.598-0.279-0.946 0-0.436 0.111-0.78 0.334-1.030s0.584-0.432 1.085-0.545 1.192-0.17 2.073-0.17h0.303v-0.279c0-0.396-0.085-0.685-0.255-0.867s-0.445-0.273-0.824-0.273c-0.235 0-0.473 0.035-0.715 0.103s-0.529 0.168-0.861 0.297c-0.21 0.105-0.364 0.158-0.461 0.158-0.146 0-0.265-0.053-0.357-0.158s-0.139-0.243-0.139-0.413c0-0.137 0.034-0.257 0.103-0.357s0.184-0.196 0.346-0.285c0.283-0.153 0.62-0.275 1.012-0.364s0.778-0.133 1.158-0.133c0.824-0.001 1.437 0.203 1.837 0.611zM42.069 13.214c0.255-0.271 0.382-0.62 0.382-1.049v-0.255h-0.218c-0.541 0-0.962 0.024-1.261 0.072s-0.513 0.133-0.643 0.255-0.194 0.287-0.194 0.497c0 0.259 0.091 0.471 0.273 0.636s0.406 0.248 0.673 0.248c0.404 0.001 0.733-0.135 0.988-0.405z"></path>
<path fill="#fff" style="fill: var(--color1, #fff)" d="M53.962 9.116c0.343 0.384 0.515 1.005 0.515 1.861v2.983c0 0.235-0.071 0.414-0.212 0.54s-0.325 0.188-0.552 0.188c-0.218 0-0.398-0.063-0.54-0.188s-0.212-0.305-0.212-0.54v-2.983c0-0.445-0.079-0.762-0.237-0.951s-0.398-0.285-0.721-0.285c-0.396 0-0.712 0.135-0.946 0.406s-0.352 0.641-0.352 1.109v2.704c0 0.235-0.071 0.414-0.212 0.54s-0.321 0.188-0.54 0.188-0.4-0.063-0.545-0.188c-0.146-0.125-0.218-0.305-0.218-0.54v-2.983c0-0.445-0.079-0.762-0.237-0.951s-0.398-0.285-0.721-0.285c-0.396 0-0.71 0.135-0.94 0.406s-0.346 0.641-0.346 1.109v2.704c0 0.235-0.072 0.414-0.218 0.54s-0.327 0.188-0.545 0.188-0.398-0.063-0.54-0.188c-0.142-0.125-0.212-0.305-0.212-0.54v-4.692c0-0.226 0.072-0.4 0.218-0.522s0.327-0.182 0.545-0.182c0.21 0 0.382 0.059 0.515 0.176s0.2 0.285 0.2 0.503v0.291c0.186-0.323 0.434-0.57 0.746-0.74s0.669-0.255 1.073-0.255c0.889 0 1.483 0.372 1.782 1.116 0.178-0.339 0.44-0.61 0.788-0.812s0.74-0.303 1.176-0.303c0.649-0.001 1.144 0.191 1.487 0.575z"></path>
<path fill="#fff" style="fill: var(--color1, #fff)" d="M61.255 8.758c0.137 0.13 0.206 0.303 0.206 0.521v4.704c0 0.21-0.071 0.38-0.212 0.509s-0.325 0.194-0.552 0.194c-0.218 0-0.392-0.060-0.522-0.182s-0.194-0.287-0.194-0.497v-0.303c-0.186 0.323-0.436 0.572-0.751 0.746s-0.671 0.261-1.067 0.261c-1.455 0-2.182-0.816-2.182-2.449v-2.983c0-0.218 0.069-0.392 0.206-0.521s0.319-0.194 0.545-0.194c0.234 0 0.42 0.065 0.558 0.194s0.206 0.303 0.206 0.521v2.995c0 0.42 0.085 0.731 0.255 0.934s0.436 0.303 0.8 0.303c0.42 0 0.758-0.139 1.012-0.418s0.382-0.649 0.382-1.109v-2.704c0-0.218 0.069-0.392 0.206-0.521s0.319-0.194 0.545-0.194c0.235 0 0.421 0.065 0.559 0.194z"></path>
<path fill="#fff" style="fill: var(--color1, #fff)" d="M64.395 6.309c0.17 0.202 0.255 0.497 0.255 0.885 0 0.76-0.267 1.427-0.8 2-0.097 0.105-0.21 0.158-0.339 0.158-0.114 0-0.216-0.042-0.309-0.127s-0.139-0.184-0.139-0.297c0-0.097 0.040-0.19 0.121-0.279 0.243-0.259 0.4-0.55 0.473-0.873-0.235-0.024-0.427-0.115-0.576-0.273s-0.225-0.354-0.225-0.588c0-0.259 0.083-0.475 0.248-0.649s0.374-0.261 0.624-0.261c0.275 0.001 0.498 0.101 0.667 0.303z"></path>
<path fill="#fff" style="fill: var(--color1, #fff)" d="M69.815 14.105c0 0.194-0.079 0.341-0.236 0.443s-0.382 0.144-0.673 0.127l-0.327-0.024c-1.358-0.097-2.037-0.824-2.037-2.183v-2.643h-0.606c-0.218 0-0.386-0.049-0.503-0.146s-0.176-0.238-0.176-0.424c0-0.186 0.059-0.327 0.176-0.424s0.285-0.146 0.503-0.146h0.606v-1.116c0-0.218 0.069-0.392 0.206-0.522s0.323-0.194 0.558-0.194c0.226 0 0.408 0.065 0.545 0.194s0.206 0.303 0.206 0.522v1.116h1.030c0.218 0 0.386 0.049 0.503 0.146s0.176 0.239 0.176 0.424c0 0.186-0.059 0.327-0.176 0.424s-0.285 0.146-0.503 0.146h-1.030v2.752c0 0.598 0.275 0.917 0.824 0.958l0.327 0.024c0.405 0.024 0.607 0.207 0.607 0.546z"></path>
<path fill="#fff" style="fill: var(--color1, #fff)" d="M73.9 14.19c-0.259-0.153-0.388-0.371-0.388-0.654 0-0.162 0.044-0.293 0.133-0.394s0.198-0.151 0.327-0.151c0.137 0 0.327 0.065 0.57 0.194 0.259 0.121 0.495 0.214 0.71 0.279s0.487 0.097 0.818 0.097c0.339 0 0.604-0.056 0.794-0.17s0.285-0.271 0.285-0.473c0-0.137-0.038-0.246-0.115-0.327s-0.214-0.155-0.412-0.225c-0.198-0.069-0.499-0.148-0.903-0.236-0.719-0.146-1.235-0.352-1.546-0.619s-0.467-0.635-0.467-1.104c0-0.355 0.105-0.677 0.315-0.964s0.499-0.509 0.867-0.667c0.368-0.158 0.786-0.237 1.255-0.237 0.339 0 0.667 0.042 0.982 0.127s0.598 0.209 0.849 0.37c0.259 0.162 0.388 0.376 0.388 0.643 0 0.162-0.044 0.297-0.133 0.406s-0.198 0.164-0.327 0.164c-0.089 0-0.176-0.018-0.26-0.055s-0.192-0.091-0.321-0.164c-0.235-0.121-0.436-0.212-0.606-0.273s-0.38-0.091-0.631-0.091c-0.299 0-0.536 0.060-0.709 0.182s-0.26 0.287-0.26 0.497c0 0.202 0.089 0.355 0.267 0.461s0.521 0.21 1.030 0.315c0.541 0.114 0.966 0.243 1.273 0.388s0.527 0.327 0.661 0.545c0.133 0.218 0.2 0.497 0.2 0.837 0 0.55-0.228 0.99-0.685 1.322s-1.065 0.497-1.825 0.497c-0.882 0.001-1.592-0.173-2.134-0.521z"></path>
<path fill="#fff" style="fill: var(--color1, #fff)" d="M84.175 9.152c0.4 0.408 0.6 1.028 0.6 1.861v2.958c0 0.218-0.065 0.39-0.194 0.515s-0.307 0.188-0.534 0.188c-0.21 0-0.382-0.065-0.515-0.194s-0.2-0.299-0.2-0.509v-0.267c-0.137 0.315-0.354 0.562-0.649 0.74s-0.636 0.267-1.025 0.267c-0.396 0-0.756-0.081-1.079-0.243s-0.578-0.384-0.764-0.667c-0.186-0.283-0.279-0.598-0.279-0.946 0-0.436 0.111-0.78 0.334-1.030s0.584-0.432 1.085-0.545 1.192-0.17 2.073-0.17h0.303v-0.279c0-0.396-0.085-0.685-0.255-0.867s-0.445-0.273-0.824-0.273c-0.235 0-0.473 0.035-0.715 0.103s-0.529 0.168-0.861 0.297c-0.21 0.105-0.364 0.158-0.461 0.158-0.146 0-0.265-0.053-0.358-0.158s-0.139-0.243-0.139-0.413c0-0.137 0.034-0.257 0.103-0.357s0.183-0.196 0.346-0.285c0.283-0.153 0.62-0.275 1.012-0.364s0.778-0.133 1.158-0.133c0.826-0.001 1.438 0.203 1.838 0.611zM82.951 13.214c0.255-0.271 0.382-0.62 0.382-1.049v-0.255h-0.218c-0.541 0-0.962 0.024-1.261 0.072s-0.513 0.133-0.643 0.255-0.194 0.287-0.194 0.497c0 0.259 0.091 0.471 0.273 0.636s0.406 0.248 0.673 0.248c0.404 0.001 0.733-0.135 0.988-0.405z"></path>
<path fill="#fff" style="fill: var(--color1, #fff)" d="M90.122 8.698c0.121 0.105 0.182 0.263 0.182 0.473 0 0.218-0.053 0.38-0.158 0.485s-0.295 0.174-0.57 0.206l-0.364 0.037c-0.477 0.049-0.826 0.21-1.049 0.485s-0.334 0.619-0.334 1.030v2.546c0 0.235-0.073 0.414-0.218 0.54s-0.327 0.188-0.545 0.188c-0.218 0-0.398-0.063-0.54-0.188s-0.212-0.305-0.212-0.54v-4.692c0-0.226 0.071-0.4 0.212-0.522s0.317-0.182 0.527-0.182c0.21 0 0.38 0.059 0.509 0.176s0.194 0.285 0.194 0.503v0.485c0.153-0.355 0.382-0.631 0.685-0.824s0.64-0.303 1.012-0.327l0.17-0.012c0.21-0.016 0.376 0.028 0.497 0.133z"></path>
<path fill="#fff" style="fill: var(--color1, #fff)" d="M91.056 7.261c-0.162-0.149-0.243-0.346-0.243-0.588s0.081-0.436 0.243-0.582c0.162-0.146 0.38-0.218 0.655-0.218 0.267 0 0.483 0.072 0.649 0.218s0.248 0.339 0.248 0.582-0.081 0.439-0.243 0.588c-0.162 0.149-0.38 0.225-0.654 0.225s-0.493-0.074-0.655-0.225zM91.171 14.499c-0.142-0.125-0.212-0.305-0.212-0.54v-4.68c0-0.234 0.071-0.412 0.212-0.533s0.321-0.182 0.54-0.182 0.4 0.060 0.545 0.182 0.218 0.299 0.218 0.533v4.68c0 0.235-0.073 0.414-0.218 0.54s-0.327 0.188-0.545 0.188c-0.218 0-0.398-0.063-0.54-0.188z"></path>
<path fill="#fff" style="fill: var(--color1, #fff)" d="M41.535 19.979c0.343 0.384 0.515 1.005 0.515 1.861v2.983c0 0.235-0.071 0.414-0.212 0.54s-0.325 0.188-0.552 0.188c-0.218 0-0.398-0.063-0.54-0.188s-0.212-0.305-0.212-0.54v-2.983c0-0.445-0.079-0.762-0.237-0.951s-0.398-0.285-0.721-0.285c-0.396 0-0.712 0.135-0.946 0.406s-0.352 0.641-0.352 1.109v2.704c0 0.235-0.071 0.414-0.212 0.54s-0.321 0.188-0.54 0.188-0.4-0.063-0.545-0.188c-0.146-0.125-0.218-0.305-0.218-0.54v-2.983c0-0.445-0.079-0.762-0.237-0.951s-0.398-0.285-0.721-0.285c-0.396 0-0.71 0.135-0.94 0.406s-0.346 0.641-0.346 1.109v2.704c0 0.235-0.072 0.414-0.218 0.54s-0.327 0.188-0.545 0.188-0.398-0.063-0.54-0.188c-0.142-0.125-0.212-0.305-0.212-0.54v-4.692c0-0.226 0.072-0.4 0.218-0.522s0.327-0.182 0.545-0.182c0.21 0 0.382 0.059 0.515 0.176s0.2 0.285 0.2 0.503v0.291c0.186-0.323 0.434-0.57 0.746-0.74s0.669-0.255 1.073-0.255c0.889 0 1.483 0.372 1.782 1.116 0.178-0.339 0.44-0.61 0.788-0.812s0.74-0.303 1.176-0.303c0.649-0.001 1.143 0.191 1.487 0.575z"></path>
<path fill="#fff" style="fill: var(--color1, #fff)" d="M47.997 20.014c0.4 0.408 0.6 1.028 0.6 1.861v2.958c0 0.218-0.065 0.39-0.194 0.515s-0.307 0.188-0.533 0.188c-0.21 0-0.382-0.065-0.515-0.194s-0.2-0.299-0.2-0.509v-0.267c-0.137 0.315-0.354 0.562-0.649 0.74s-0.636 0.267-1.025 0.267c-0.396 0-0.756-0.081-1.079-0.243s-0.578-0.384-0.764-0.667c-0.186-0.283-0.279-0.598-0.279-0.946 0-0.436 0.111-0.78 0.334-1.030s0.584-0.432 1.085-0.545 1.192-0.17 2.073-0.17h0.303v-0.279c0-0.396-0.085-0.685-0.255-0.867s-0.445-0.273-0.824-0.273c-0.235 0-0.473 0.035-0.715 0.103s-0.529 0.168-0.861 0.297c-0.21 0.105-0.364 0.158-0.461 0.158-0.146 0-0.265-0.053-0.357-0.158s-0.139-0.243-0.139-0.413c0-0.137 0.034-0.257 0.103-0.357s0.184-0.196 0.346-0.285c0.283-0.153 0.62-0.275 1.012-0.364s0.778-0.133 1.158-0.133c0.824-0.001 1.437 0.203 1.837 0.611zM46.773 24.076c0.255-0.271 0.382-0.62 0.382-1.049v-0.255h-0.218c-0.541 0-0.962 0.024-1.261 0.073s-0.513 0.133-0.643 0.255-0.194 0.287-0.194 0.497c0 0.259 0.091 0.471 0.273 0.636s0.406 0.248 0.673 0.248c0.404 0.001 0.734-0.135 0.988-0.405z"></path>
<path fill="#fff" style="fill: var(--color1, #fff)" d="M53.944 19.56c0.121 0.105 0.182 0.263 0.182 0.473 0 0.218-0.053 0.38-0.158 0.485s-0.295 0.174-0.57 0.206l-0.364 0.037c-0.477 0.049-0.826 0.21-1.049 0.485s-0.334 0.619-0.334 1.030v2.546c0 0.235-0.072 0.414-0.218 0.54s-0.327 0.188-0.545 0.188-0.398-0.063-0.54-0.188c-0.142-0.125-0.212-0.305-0.212-0.54v-4.692c0-0.226 0.071-0.4 0.212-0.522s0.317-0.182 0.527-0.182c0.21 0 0.38 0.059 0.509 0.176s0.194 0.285 0.194 0.503v0.485c0.153-0.355 0.382-0.631 0.685-0.824s0.64-0.303 1.012-0.327l0.17-0.012c0.21-0.016 0.376 0.028 0.497 0.133z"></path>
<path fill="#fff" style="fill: var(--color1, #fff)" d="M59.012 24.968c0 0.194-0.079 0.341-0.236 0.443s-0.382 0.144-0.673 0.127l-0.327-0.024c-1.358-0.097-2.037-0.824-2.037-2.183v-2.643h-0.606c-0.218 0-0.386-0.049-0.503-0.146s-0.176-0.238-0.176-0.424 0.059-0.327 0.176-0.424c0.117-0.097 0.285-0.146 0.503-0.146h0.606v-1.116c0-0.218 0.069-0.392 0.206-0.522s0.323-0.194 0.558-0.194c0.226 0 0.408 0.065 0.545 0.194s0.206 0.303 0.206 0.522v1.116h1.030c0.218 0 0.386 0.049 0.503 0.146s0.176 0.239 0.176 0.424c0 0.186-0.059 0.327-0.176 0.424s-0.285 0.146-0.503 0.146h-1.030v2.752c0 0.598 0.275 0.917 0.824 0.958l0.327 0.024c0.405 0.024 0.607 0.207 0.607 0.546z"></path>
<path fill="none" stroke="#fff" style="stroke: var(--color1, #fff)" stroke-linejoin="miter" stroke-linecap="butt" stroke-miterlimit="10" stroke-width="1.265" d="M13.026 12.118c1.707 4.637 7.751 4.669 9.549 0.051"></path>
</svg>