<svg xmlns="http://www.w3.org/2000/svg" viewBox="0 0 32 32">
<path fill="#b7ff88" style="fill: var(--color1, #b7ff88)" d="M18.909 2.764c0 1.526-1.302 2.764-2.909 2.764s-2.909-1.237-2.909-2.764c0-1.526 1.302-2.764 2.909-2.764s2.909 1.237 2.909 2.764z"></path>
<path fill="#a7a5a6" style="fill: var(--color2, #a7a5a6)" d="M5.527 16c0 1.607-1.237 2.909-2.764 2.909s-2.764-1.302-2.764-2.909c0-1.607 1.237-2.909 2.764-2.909s2.764 1.302 2.764 2.909z"></path>
<path fill="#d3d2d2" style="fill: var(--color3, #d3d2d2)" d="M9.452 6.76c0 1.566-1.27 2.835-2.835 2.835s-2.836-1.27-2.836-2.835c0-1.566 1.27-2.836 2.836-2.836s2.835 1.27 2.835 2.836z"></path>
<path fill="#231f20" style="fill: var(--color4, #231f20)" d="M32 16c0-1.607-1.237-2.909-2.764-2.909s-2.764 1.302-2.764 2.909c0 1.607 1.237 2.909 2.764 2.909s2.764-1.302 2.764-2.909z"></path>
<path fill="#a7a5a6" style="fill: var(--color2, #a7a5a6)" d="M28.219 6.76c0-1.566-1.27-2.836-2.835-2.836s-2.835 1.27-2.835 2.836c0 1.566 1.27 2.835 2.835 2.835s2.835-1.27 2.835-2.835z"></path>
<path fill="#d3d2d2" style="fill: var(--color3, #d3d2d2)" d="M13.091 29.236c0-1.526 1.302-2.764 2.909-2.764s2.909 1.237 2.909 2.764c0 1.526-1.302 2.764-2.909 2.764s-2.909-1.237-2.909-2.764z"></path>
<path fill="#b7ff88" style="fill: var(--color1, #b7ff88)" d="M28.219 25.24c0 1.566-1.27 2.835-2.835 2.835s-2.835-1.27-2.835-2.835c0-1.566 1.27-2.835 2.835-2.835s2.835 1.27 2.835 2.835z"></path>
<path fill="#231f20" style="fill: var(--color4, #231f20)" d="M9.452 25.24c0-1.566-1.27-2.835-2.835-2.835s-2.836 1.27-2.836 2.835c0 1.566 1.27 2.835 2.836 2.835s2.835-1.27 2.835-2.835z"></path>
</svg>